- 
http://www.Speed.Cd      fast  and The Hottest Private Tracker on the net

   signup is open now

Please Seed back to make the speed Faster!!!

------------------nfo--------------------------
-UUUUUUUU     UUUUUUUU           SSSSSSSSSSSSSSS         MMMMMMMM               MMMMMMMM     
U::::::U     U::::::U         SS:::::::::::::::S        M:::::::M             M:::::::M     
U::::::U     U::::::U        S:::::SSSSSS::::::S        M::::::::M           M::::::::M     
UU:::::U     U:::::UU        S:::::S     SSSSSSS        M:::::::::M         M:::::::::M     
 U:::::U     U:::::U         S:::::S                    M::::::::::M       M::::::::::M     
 U:::::D     D:::::U         S:::::S                    M:::::::::::M     M:::::::::::M     
 U:::::D     D:::::U          S::::SSSS                 M:::::::M::::M   M::::M:::::::M     
 U:::::D     D:::::U           SS::::::SSSSS            M::::::M M::::M M::::M M::::::M     
 U:::::D     D:::::U             SSS::::::::SS          M::::::M  M::::M::::M  M::::::M     
 U:::::D     D:::::U                SSSSSS::::S         M::::::M   M:::::::M   M::::::M     
 U:::::D     D:::::U                     S:::::S        M::::::M    M:::::M    M::::::M     
 U::::::U   U::::::U                     S:::::S        M::::::M     MMMMM     M::::::M     
 U:::::::UUU:::::::U         SSSSSSS     S:::::S        M::::::M               M::::::M     
  UU:::::::::::::UU   ...... S::::::SSSSSS:::::S ...... M::::::M               M::::::M     
    UU:::::::::UU     .::::. S:::::::::::::::SS  .::::. M::::::M               M::::::M     
      UUUUUUUUU       ......  SSSSSSSSSSSSSSS    ...... MMMMMMMM               MMMMMMMM   



                             J.Edgar 2011 CAM XViD - U.S.M
 

SOURCES:

Special Friends

IMDB:

www.imdb.com/title/tt1616195/

Video
ID                               : 0
Format                           : MPEG-4 Visual
Format profile                   : Advanced Simple@L5
Format settings, BVOP            : 2
Format settings, QPel            : No
Format settings, GMC             : No warppoints
Format settings, Matrix          : Default (MPEG)
Muxing mode                      : Packed bitstream
Codec ID                         : XVID
Codec ID/Hint                    : XviD
Duration                         : 2h 6mn
Bit rate                         : 2 279 Kbps
Width                            : 720 pixels
Height                           : 304 pixels
Display aspect ratio             : 2.35:1
Frame rate                       : 24.000 fps
Color space                      : YUV
Chroma subsampling               : 4:2:0
Bit depth                        : 8 bits
Scan type                        : Progressive
Compression mode                 : Lossy
Bits/(Pixel*Frame)               : 0.434
Stream size                      : 2.01 GiB (94%)
Writing library                  : XviD 64

Audio
ID                               : 1
Format                           : MPEG Audio
Format version                   : Version 1
Format profile                   : Layer 3
Codec ID                         : 55
Codec ID/Hint                    : MP3
Duration                         : 2h 6mn
Bit rate mode                    : Constant
Bit rate                         : 128 Kbps
Channel(s)                       : 2 channels
Sampling rate                    : 44.1 KHz
Compression mode                 : Lossy
Stream size                      : 116 MiB (5%)
Alignment                        : Split accross interleaves
Interleave, duration             : 42 ms (1.00 video frame)
Interleave, preload duration     : 500 ms


WORKDONE:

Once again we were kindly given the source files to rip ....so thanks for that :D
Video was in 3 parts so encoding then all differently as there was the normal camera movement and it was also
cammed at a bad angle,so need to rotate the video and use the perspective filter to pull it back in.
The video itself contained alot of noise and had some weird colouring and was dull looking....
Fixed all we could the best we could then we append all the files together and then opted to cut some footage at the
first join around 59mins in as the camera was lost again and just a black screen .
Audio is decent cam and has been resynced to the video......
Opted to keep the file a decent size as its a 2hr + flick and want to keep a decent bitrate.
Check sample for Q.

SCREENIES:

[IMG]http://i.imgur.com/TVMyA.png[/IMG]
[IMG]http://i.imgur.com/0AsIg.png[/IMG]
[IMG]http://i.imgur.com/Nijf2.png[/IMG]
[IMG]http://i.imgur.com/eXTtm.png[/IMG]